<svg width="48" height="48" fill="none" version="1.1" viewBox="0 0 48 48" xmlns="http://www.w3.org/2000/svg">
 <path d="m14 5h13.558l9.4424 10.387v24.613c0 1.6569-1.3431 3-3 3h-20c-1.6569 0-3-1.3431-3-3v-32c0-1.6568 1.3431-3 3-3z" stroke="#000" stroke-linejoin="round" stroke-width="3.7"/>
 <g fill="#000" stroke="#000" stroke-linecap="round">
  <path d="m16.786 33h15.796" stroke-width="3.2788"/>
  <path d="m17 37h12" stroke-width="3.5"/>
  <path d="m28 22v6" stroke-width="3.5"/>
 </g>
 <path d="m25 25h6" stroke="#000" stroke-linecap="round" stroke-width="3.5"/>
 <path d="m18.159 28.765q-0.5744 0-1.161-0.12t-1.0021-0.348v-1.02q0.41552 0.264 0.95326 0.408 0.53774 0.132 1.1121 0.132 1.0266 0 1.601-0.42 0.5744-0.432 0.5744-1.32 0-0.9-0.5744-1.356-0.56218-0.456-1.5154-0.456-0.34219 0-0.73328 0.06-0.39108 0.048-0.69661 0.12l-0.53774-0.336 0.32997-4.032h4.3508v0.96h-3.4097l-0.2322 2.472q0.25665-0.06 0.62328-0.084 0.37886-0.036 0.65995-0.036 0.79438 0 1.4421 0.288 0.64773 0.288 1.0266 0.876 0.39108 0.576 0.39108 1.452 0 1.26-0.84327 2.016-0.83104 0.744-2.3587 0.744z" fill="#000" stroke="#000" stroke-width="2" aria-label="5"/>
</svg>
