<?xml version="1.0" encoding="UTF-8" standalone="no"?>
<!-- Created with Inkscape (http://www.inkscape.org/) -->

<svg
   width="800"
   height="800"
   viewBox="0 0 200 200"
   version="1.1"
   id="svg1"
   xml:space="preserve"
   xmlns="http://www.w3.org/2000/svg"
   xmlns:svg="http://www.w3.org/2000/svg"><defs
     id="defs1" /><g
     id="layer3-9"
     style="display:inline"
     transform="translate(-47.25,-10.250001)"><g
       id="g5"
       transform="matrix(0.96611274,0,0,0.96611274,7.1984584,4.8997663)"
       style="fill:#000000;fill-opacity:1"><path
         id="rect3-1"
         style="display:inline;fill:#000000;fill-opacity:1;stroke-width:0.554139"
         d="M 41.456385,5.5378987 V 212.55307 H 248.47156 V 5.5378987 Z M 74.366859,30.612952 H 248.4708 V 63.00696 h -29.24792 v 78.81484 c 0.75868,12.68315 7.06851,16.7356 29.24792,13.59644 v 31.84341 c -22.13093,6.09771 -61.88362,10.7205 -64.83222,-31.84341 V 63.00696 H 139.90087 V 187.26165 H 99.846717 c 5.214503,-4.36501 9.950203,-9.32196 14.108253,-14.79377 -7.04305,-9.5059 -12.23868,-17.62636 -10.57053,-20.57495 1.61321,-2.84554 11.19418,-2.52632 22.9704,-1.37879 1.45205,-3.59193 2.6494,-7.33729 3.64088,-11.19403 0.99164,-3.85741 1.75679,-7.74342 2.21708,-11.59027 -10.86998,-4.67427 -19.41776,-9.01528 -19.45826,-12.28589 -0.0396,-3.38798 8.401,-8.00248 19.18298,-12.92565 -1.16301,-7.700771 -3.26614,-15.172471 -6.23408,-22.249993 -11.75182,1.384784 -21.36556,1.878476 -23.09215,-1.002693 C 100.91254,76.39123 105.99046,68.179779 112.86388,58.57976 108.12963,52.546123 102.57088,47.093361 96.385757,42.360656 86.880116,49.404164 78.759632,54.600558 75.810798,52.931961 73.010917,51.376215 73.245935,42.084045 74.366859,30.612952 Z" /></g></g></svg>
