<?xml version="1.0" encoding="UTF-8" standalone="no"?>
<!-- Created with Inkscape (http://www.inkscape.org/) -->

<svg
   width="800"
   height="800"
   viewBox="0 0 200 200"
   version="1.1"
   id="svg1"
   xml:space="preserve"
   sodipodi:docname="logo_colored.svg"
   inkscape:version="1.4.3 (0d15f75042, 2025-12-25)"
   xmlns:inkscape="http://www.inkscape.org/namespaces/inkscape"
   xmlns:sodipodi="http://sodipodi.sourceforge.net/DTD/sodipodi-0.dtd"
   xmlns="http://www.w3.org/2000/svg"
   xmlns:svg="http://www.w3.org/2000/svg"><sodipodi:namedview
     id="namedview1"
     pagecolor="#ffffff"
     bordercolor="#000000"
     borderopacity="0.25"
     inkscape:showpageshadow="2"
     inkscape:pageopacity="0.0"
     inkscape:pagecheckerboard="0"
     inkscape:deskcolor="#d1d1d1"
     inkscape:zoom="0.76875"
     inkscape:cx="399.34959"
     inkscape:cy="400"
     inkscape:window-width="1440"
     inkscape:window-height="866"
     inkscape:window-x="0"
     inkscape:window-y="0"
     inkscape:window-maximized="1"
     inkscape:current-layer="svg1" /><defs
     id="defs1" /><g
     id="layer3-9"
     style="display:inline;fill:#ff9731;fill-opacity:1"
     transform="translate(-47.25,-10.250001)"><path
       id="rect7"
       style="display:inline;fill:#ff9731;fill-opacity:1;stroke:#000000;stroke-width:1.00623"
       d="m 49.791647,22.022497 c -1.263892,12.606254 -1.528871,22.818314 1.628121,24.528014 3.324943,1.833719 12.480817,-3.87725 23.198854,-11.617773 6.97401,5.201047 13.241973,11.193904 18.580054,17.82462 -7.750092,10.550022 -13.4758,19.57406 -11.560388,22.732889 1.946808,3.166285 12.786678,2.623779 26.037382,1.101958 3.34648,7.777902 5.718,15.98854 7.02935,24.451365 -12.15717,5.41036 -21.674651,10.48168 -21.629998,14.20493 0.04566,3.59427 9.684188,8.36494 21.940568,13.50176 -0.51899,4.22753 -1.38189,8.49782 -2.50002,12.73696 -1.11794,4.23839 -2.46809,8.35467 -4.10534,12.30205 -13.278215,-1.26109 -24.081077,-1.61194 -25.90004,1.51519 -1.880913,3.24038 3.977482,12.16411 11.918837,22.6107 -4.688382,6.01329 -10.028342,11.46081 -15.907932,16.25777 H 123.6839 V 57.622304 h 49.31659 V 159.17853 c 3.3022,46.45977 47.54341,41.76226 72.59238,35.13048 v -35.06104 c -24.59621,3.31924 -31.6199,-1.16814 -32.46951,-15.01141 V 57.622304 h 32.46951 V 22.022497 Z" /><g
       id="g5"
       transform="matrix(0.96611274,0,0,0.96611274,7.1984584,4.8997663)"
       style="fill:#ff9731;fill-opacity:1" /></g></svg>
